<svg xmlns="http://www.w3.org/2000/svg" version="1.1" xmlns:xlink="http://www.w3.org/1999/xlink" xmlns:svgjs="http://svgjs.dev/svgjs" width="2000" height="2000" viewBox="0 0 2000 2000"><g transform="matrix(1,0,0,1,0,0)"><svg viewBox="0 0 280 280" data-background-color="#ffffff" preserveAspectRatio="xMidYMid meet" height="2000" width="2000" xmlns="http://www.w3.org/2000/svg" xmlns:xlink="http://www.w3.org/1999/xlink"><g id="tight-bounds" transform="matrix(1,0,0,1,0,0)"><svg viewBox="0 0 280 280" height="280" width="280"><g><svg viewBox="0 0 280 280" height="280" width="280"><g><svg viewBox="0 0 280 280" height="280" width="280"><g id="textblocktransform"><svg viewBox="0 0 280 280" height="280" width="280" id="textblock"><g><svg viewBox="0 0 280 280" height="280" width="280"><g transform="matrix(1,0,0,1,57.50420886156945,57.50420886156945)"><svg viewBox="0 0 164.9915822768611 164.9915822768611" height="164.9915822768611" width="164.9915822768611"><g id="icon-0"><circle r="82" cx="82.49579113843055" cy="82.49579113843055" fill="#fe6e63" data-fill-palette-color="accent"></circle><svg xmlns="http://www.w3.org/2000/svg" xmlns:xlink="http://www.w3.org/1999/xlink" version="1.1" x="24.74873734152917" y="24.748737341529164" viewBox="0 0 70.8 51.1" style="enable-background:new 0 0 70.8 51.1;" xml:space="preserve" id="jxe-0" width="115.49410759380275" height="115.49410759380275" class="icon-jxe-0" data-fill-palette-color="quaternary"><g fill="#ffffff" data-fill-palette-color="quaternary"><path d="M53.9 14.6C54.5 15.5 55 16.4 55.5 17.5S56.2 19.7 56.4 20.8L70.8 27 60 0z" fill="#ffffff" data-fill-palette-color="quaternary"></path><path d="M54.5 17.9C54.2 17.1 53.9 16.5 53.5 15.9 51.8 13.1 48.9 11.2 44.9 10.2 40.1 9 35.1 9.5 29.9 11.6 24.6 13.6 20.6 16.8 17.9 21 15.4 25.3 14.9 29.3 16.4 33.2 17.9 37 21.1 39.6 25.9 40.8 30.8 42 35.8 41.6 41 39.5 46.3 37.4 50.3 34.2 52.9 30 55 26.5 55.8 23.2 55.1 20 55 19.3 54.8 18.6 54.5 17.9M46.5 14.3C47.101 14.7 47.2 15 46.8 14.8 42 13.6 37 14.1 31.7 16.1 26.4 18.2 22.4 21.4 19.8 25.7 19.6 26 19.6 25.7 19.8 25 19.9 24.1 20.1 23.3 20.6 22.5 22.8 18.5 26.1 15.6 30.7 13.7 35.3 11.9 39.8 11.7 44.1 13.1 45 13.4 45.8 13.8 46.5 14.3" fill="#ffffff" data-fill-palette-color="quaternary"></path><path d="M14.601 30.2L0 24.1 10.9 51.1 17.1 36.5C16.4 35.7 15.8 34.7 15.4 33.6 14.9 32.5 14.7 31.4 14.601 30.2" fill="#ffffff" data-fill-palette-color="quaternary"></path></g></svg></g></svg></g><g id="text-0"><path d="M7.363 103.537l7.526-20.903 3.214 1.157-3.125 8.681 22.95 8.262-1.275 3.541-22.95-8.261-3.125 8.681z" fill="#b81d33" data-fill-palette-color="primary"></path><path d="M47.446 61.746v0c3.428 2.318 5.425 4.589 5.993 6.811 0.567 2.222-0.184 4.863-2.254 7.924v0c-2.137 3.159-4.306 4.889-6.508 5.19-2.198 0.296-5.061-0.749-8.587-3.134v0c-3.455-2.337-5.461-4.613-6.017-6.827-0.556-2.215 0.21-4.866 2.298-7.954v0c2.137-3.159 4.3-4.881 6.491-5.166 2.191-0.285 5.052 0.767 8.584 3.156zM38.085 75.498v0c2.693 1.821 4.716 2.67 6.071 2.547 1.345-0.121 2.756-1.274 4.232-3.456v0c1.424-2.106 1.927-3.836 1.508-5.191-0.424-1.358-1.934-2.914-4.528-4.668v0c-2.693-1.821-4.713-2.676-6.059-2.564-1.338 0.11-2.743 1.254-4.215 3.432v0c-1.443 2.133-1.96 3.874-1.553 5.22 0.408 1.347 1.923 2.907 4.544 4.68z" fill="#b81d33" data-fill-palette-color="primary"></path><path d="M65.569 46.493l-2.123 1.749 6.037 7.328-2.806 2.311-18.755-22.766 2.806-2.311 10.716 13.008 2.016-1.661 0.034-12.033 3.388-2.791-0.245 13.995 14.52 2.63-3.526 2.905z" fill="#b81d33" data-fill-palette-color="primary"></path><path d="M104.587 29.849v0l1.262 2.787c-0.533 0.7-1.415 1.499-2.643 2.396-1.235 0.901-2.551 1.668-3.95 2.303v0c-3.124 1.415-5.725 1.619-7.802 0.612-2.077-1.007-3.957-3.368-5.64-7.083v0c-1.623-3.582-2.105-6.508-1.447-8.776 0.661-2.262 2.527-4.089 5.597-5.48v0c2.853-1.292 5.19-1.581 7.012-0.864 1.818 0.725 3.404 2.579 4.756 5.564v0c0.246 0.543 0.459 1.046 0.64 1.509 0.177 0.472 0.375 1.051 0.591 1.739v0l-13.253 6.004c1.03 2.194 2.196 3.563 3.496 4.107 1.301 0.545 3.028 0.329 5.181-0.646v0c1.158-0.525 2.322-1.179 3.493-1.964 1.168-0.791 2.07-1.527 2.707-2.208zM98.5 22.238v0c-0.83-1.768-1.789-2.849-2.876-3.244-1.09-0.4-2.524-0.197-4.303 0.609v0c-1.99 0.902-3.207 1.962-3.651 3.18-0.435 1.222-0.17 2.897 0.794 5.027v0l10.385-4.705c-0.025-0.054-0.077-0.187-0.158-0.397-0.078-0.204-0.142-0.361-0.191-0.47z" fill="#b81d33" data-fill-palette-color="primary"></path><path d="M122.095 12.557l2.489 16.89-3.596 0.53-3.194-21.675 3.114-0.459 0.487 2.076 0.128-0.019c1.043-1.051 2.17-1.873 3.381-2.465 1.21-0.6 2.604-1.016 4.183-1.249v0c2.404-0.354 4.313-0.023 5.727 0.992 1.421 1.015 2.305 2.695 2.651 5.041v0l2.211 15.003-3.596 0.53-2.148-14.571c-0.215-1.461-0.784-2.481-1.706-3.061-0.922-0.58-2.231-0.745-3.928-0.495v0c-1.055 0.155-2.104 0.481-3.148 0.976-1.051 0.496-2.069 1.148-3.055 1.956z" fill="#b81d33" data-fill-palette-color="primary"></path><path d="M152.385 0l22.023 2.931-0.451 3.387-9.146-1.218-3.218 24.179-3.731-0.497 3.218-24.178-9.146-1.217z" fill="#b81d33" data-fill-palette-color="primary"></path><path d="M190.839 19.06l-6.046 16.061-3.402-1.281 7.719-20.504 3.114 1.173-0.487 1.801 0.158 0.059c1.322-0.224 2.583-0.294 3.783-0.21 1.197 0.09 2.322 0.333 3.375 0.73v0c0.44 0.166 0.737 0.278 0.893 0.336 0.149 0.056 0.261 0.116 0.335 0.179v0l-1.231 3.272c-0.177-0.13-0.409-0.257-0.696-0.379-0.28-0.12-0.727-0.295-1.341-0.526v0c-0.998-0.376-2.018-0.625-3.061-0.749-1.043-0.124-2.081-0.111-3.113 0.038z" fill="#b81d33" data-fill-palette-color="primary"></path><path d="M219.776 50.44v0l-1.745 2.513c-0.874-0.099-2.012-0.446-3.413-1.04-1.407-0.598-2.741-1.335-4.002-2.211v0c-2.817-1.956-4.326-4.084-4.527-6.384-0.201-2.3 0.862-5.125 3.188-8.474v0c2.243-3.23 4.507-5.145 6.793-5.743 2.281-0.592 4.806 0.073 7.574 1.995v0c2.572 1.786 4.018 3.645 4.338 5.576 0.311 1.933-0.469 4.245-2.338 6.937v0c-0.34 0.489-0.662 0.931-0.967 1.323-0.314 0.394-0.711 0.861-1.189 1.399v0l-11.951-8.298c-1.355 2.009-1.933 3.712-1.734 5.108 0.199 1.396 1.27 2.768 3.212 4.116v0c1.044 0.725 2.203 1.389 3.478 1.991 1.278 0.597 2.373 0.994 3.283 1.192zM223.189 41.311v0c1.092-1.619 1.529-2.997 1.31-4.132-0.215-1.141-1.125-2.268-2.73-3.383v0c-1.795-1.246-3.329-1.747-4.603-1.503-1.272 0.253-2.575 1.34-3.907 3.26v0l9.365 6.503c0.034-0.049 0.121-0.162 0.26-0.34 0.136-0.172 0.237-0.307 0.305-0.405z" fill="#b81d33" data-fill-palette-color="primary"></path><path d="M231.003 68.675v0c-1.428-1.732-2.06-3.347-1.897-4.846 0.163-1.499 1.146-2.992 2.95-4.479v0c1.824-1.503 3.523-2.081 5.098-1.731 1.575 0.349 3.331 1.699 5.269 4.049v0c0.64 0.777 1.236 1.572 1.788 2.388 0.553 0.806 1.034 1.598 1.443 2.375v0l1.64-1.352c1.257-1.036 1.893-2.101 1.909-3.195 0.02-1.089-0.551-2.339-1.713-3.749v0c-0.868-1.052-1.668-1.946-2.402-2.68-0.739-0.73-1.531-1.42-2.376-2.07v0l2.43-2.002c0.984 0.725 1.911 1.522 2.782 2.391 0.875 0.874 1.81 1.915 2.804 3.12v0c1.676 2.033 2.443 3.932 2.301 5.697-0.137 1.76-1.196 3.457-3.178 5.091v0l-11.434 9.425-2.116-2.567 1.457-1.433-0.057-0.069c-1.111-0.234-2.284-0.751-3.519-1.553-1.235-0.801-2.295-1.738-3.179-2.81zM240.383 63.877v0c-1.28-1.553-2.355-2.477-3.226-2.772-0.879-0.296-1.799-0.049-2.759 0.743v0c-1.001 0.825-1.516 1.674-1.544 2.546-0.032 0.867 0.422 1.87 1.361 3.01v0c0.733 0.889 1.62 1.689 2.662 2.401 1.047 0.708 2.021 1.192 2.922 1.452v0l3.632-2.994c-0.511-0.849-1.006-1.621-1.484-2.316-0.479-0.695-1-1.385-1.564-2.07z" fill="#b81d33" data-fill-palette-color="primary"></path><path d="M254.299 100.53v0l-2.783 1.269c-0.391-0.346-0.814-0.859-1.269-1.539-0.458-0.686-0.841-1.366-1.149-2.041v0c-1.104-2.422-1.353-4.397-0.747-5.924 0.606-1.528 2.225-2.892 4.858-4.093v0l10.247-4.672-1.359-2.982 2.828-1.289 1.381 3.027 5.082-1.684 1.249 2.738-4.844 2.208 3.238 7.103-2.828 1.29-3.239-7.103-10.121 4.614c-1.645 0.75-2.624 1.564-2.936 2.441-0.316 0.872-0.123 2.076 0.577 3.612v0c0.22 0.482 0.513 1.021 0.879 1.618 0.367 0.597 0.679 1.066 0.936 1.407z" fill="#b81d33" data-fill-palette-color="primary"></path><path d="M15.521 142.411c0-1.867 1.513-3.38 3.381-3.38 1.867 0 3.38 1.513 3.38 3.38 0 1.867-1.513 3.38-3.38 3.381-1.867 0-3.38-1.513-3.381-3.381z" fill="#b81d33" data-fill-palette-color="primary"></path><path d="M265.801 142.411c0-1.867 1.513-3.38 3.38-3.38 1.867 0 3.38 1.513 3.38 3.38 0 1.867-1.513 3.38-3.38 3.381-1.867 0-3.38-1.513-3.38-3.381z" fill="#b81d33" data-fill-palette-color="primary"></path></g><g id="text-1"><path d="M40.025 169.467l8.102 22.131-3.404 1.247-3.363-9.187-24.295 8.894-1.376-3.758 24.295-8.894-3.363-9.187z" fill="#b81d33" data-fill-palette-color="primary"></path><path d="M48.194 223.869v0c-3.629 2.469-6.651 3.548-9.065 3.237-2.41-0.306-4.72-2.082-6.929-5.328v0c-2.276-3.345-3.128-6.157-2.555-8.436 0.573-2.288 2.727-4.702 6.46-7.242v0c3.657-2.488 6.684-3.571 9.082-3.248 2.398 0.323 4.706 2.115 6.926 5.378v0c2.276 3.345 3.126 6.154 2.55 8.427-0.579 2.268-2.735 4.672-6.469 7.212zM38.305 209.264v0c-2.852 1.94-4.483 3.598-4.892 4.974-0.406 1.381 0.175 3.224 1.743 5.528v0c1.52 2.233 3.031 3.407 4.535 3.522 1.498 0.118 3.621-0.758 6.368-2.627v0c2.858-1.944 4.495-3.599 4.912-4.963 0.417-1.365-0.161-3.202-1.732-5.513v0c-1.534-2.255-3.045-3.446-4.532-3.571-1.492-0.122-3.626 0.761-6.402 2.65z" fill="#b81d33" data-fill-palette-color="primary"></path><path d="M63.924 240.817l-2.258-1.851-6.384 7.789-2.98-2.443 19.832-24.195 2.98 2.443-11.333 13.826 2.151 1.762 12.524-2.447 3.602 2.952-14.616 2.62 0.245 15.65-3.749-3.073z" fill="#b81d33" data-fill-palette-color="primary"></path><path d="M99.568 267.788v0l-1.338 2.96c-0.922 0.063-2.172-0.081-3.75-0.432-1.584-0.353-3.119-0.865-4.603-1.535v0c-3.312-1.497-5.296-3.426-5.951-5.786-0.653-2.366-0.088-5.519 1.693-9.458v0c1.718-3.801 3.711-6.232 5.977-7.293 2.27-1.052 5.034-0.841 8.293 0.632v0c3.029 1.369 4.894 3.03 5.595 4.982 0.696 1.949 0.327 4.508-1.105 7.675v0c-0.259 0.573-0.511 1.099-0.756 1.576-0.248 0.469-0.57 1.028-0.965 1.678v0l-14.064-6.357c-1.028 2.355-1.304 4.243-0.827 5.664 0.476 1.422 1.858 2.649 4.144 3.682v0c1.225 0.554 2.562 1.02 4.011 1.399 1.449 0.379 2.665 0.583 3.646 0.613zM101.379 257.61v0c0.821-1.896 1.012-3.419 0.573-4.57-0.448-1.147-1.613-2.146-3.495-2.997v0c-2.118-0.957-3.814-1.183-5.089-0.676-1.284 0.509-2.436 1.892-3.456 4.148v0l11.013 4.979c0.027-0.06 0.098-0.192 0.211-0.395 0.11-0.212 0.191-0.375 0.243-0.489z" fill="#b81d33" data-fill-palette-color="primary"></path><path d="M123.765 259.718l-2.642 17.921-3.812-0.562 3.389-22.991 3.301 0.487-0.142 2.258 0.138 0.02c1.382-0.747 2.779-1.237 4.192-1.47 1.413-0.233 2.955-0.227 4.625 0.019v0c2.548 0.376 4.387 1.296 5.516 2.76 1.136 1.466 1.521 3.44 1.155 5.923v0l-2.347 15.917-3.822-0.563 2.279-15.456c0.228-1.546-0.039-2.756-0.8-3.631-0.755-0.874-2.033-1.444-3.834-1.71v0c-1.114-0.164-2.28-0.152-3.499 0.037-1.218 0.182-2.45 0.529-3.697 1.041z" fill="#b81d33" data-fill-palette-color="primary"></path><path d="M147.08 250.421l23.364-3.09 0.476 3.594-9.699 1.282 3.393 25.648-3.968 0.525-3.392-25.648-9.699 1.283z" fill="#b81d33" data-fill-palette-color="primary"></path><path d="M185.836 253.962l6.333 17.067-3.613 1.341-8.084-21.789 3.306-1.226 0.864 1.787 0.177-0.066c0.897-1.103 1.855-2.034 2.873-2.792 1.022-0.767 2.091-1.359 3.208-1.773v0c0.472-0.175 0.788-0.292 0.95-0.353 0.161-0.06 0.291-0.09 0.39-0.091v0l1.292 3.482c-0.226 0.02-0.497 0.078-0.815 0.175-0.315 0.103-0.795 0.274-1.44 0.514v0c-1.055 0.392-2.046 0.9-2.972 1.526-0.92 0.624-1.743 1.356-2.469 2.198z" fill="#b81d33" data-fill-palette-color="primary"></path><path d="M227.359 245.954v0l1.832 2.681c-0.426 0.82-1.199 1.813-2.318 2.98-1.125 1.17-2.36 2.214-3.705 3.133v0c-3.001 2.051-5.68 2.743-8.036 2.076-2.36-0.673-4.76-2.794-7.2-6.364v0c-2.353-3.444-3.394-6.41-3.121-8.897 0.282-2.486 1.899-4.738 4.851-6.755v0c2.744-1.875 5.132-2.605 7.164-2.19 2.027 0.419 4.021 2.064 5.982 4.934v0c0.355 0.519 0.673 1.008 0.954 1.466 0.272 0.456 0.582 1.022 0.931 1.697v0l-12.742 8.708c1.477 2.102 2.946 3.32 4.408 3.651 1.462 0.332 3.229-0.21 5.3-1.625v0c1.11-0.758 2.203-1.658 3.28-2.699 1.077-1.041 1.884-1.973 2.42-2.796zM219.606 239.115v0c-1.193-1.687-2.395-2.642-3.606-2.865-1.213-0.214-2.672 0.262-4.377 1.428v0c-1.919 1.311-2.993 2.643-3.224 3.995-0.232 1.362 0.35 3.065 1.747 5.109v0l9.979-6.819c-0.037-0.055-0.113-0.183-0.227-0.386-0.124-0.204-0.221-0.358-0.292-0.462z" fill="#b81d33" data-fill-palette-color="primary"></path><path d="M248.166 231.89v0c-1.532 1.826-3.094 2.797-4.687 2.914-1.592 0.116-3.337-0.622-5.234-2.213v0c-1.923-1.613-2.853-3.275-2.792-4.986 0.062-1.702 1.132-3.791 3.209-6.267v0c0.685-0.817 1.395-1.591 2.129-2.322 0.739-0.737 1.471-1.393 2.196-1.969v0l-1.727-1.449c-1.319-1.106-2.548-1.567-3.688-1.383-1.144 0.19-2.342 1.03-3.593 2.521v0c-0.928 1.106-1.699 2.113-2.315 3.023-0.625 0.91-1.195 1.867-1.708 2.871v0l-2.557-2.144c0.566-1.159 1.22-2.278 1.962-3.359 0.742-1.08 1.647-2.257 2.714-3.53v0c1.791-2.136 3.618-3.304 5.481-3.505 1.867-0.197 3.846 0.582 5.936 2.335v0l12.037 10.097-2.272 2.709-1.78-1.247-0.057 0.069c-0.026 1.205-0.338 2.53-0.935 3.973-0.597 1.443-1.37 2.731-2.319 3.862zM241.348 223.034v0c-1.37 1.633-2.125 2.936-2.266 3.907-0.136 0.966 0.3 1.872 1.31 2.719v0c1.06 0.889 2.045 1.266 2.954 1.13 0.909-0.136 1.868-0.805 2.877-2.007v0c0.787-0.938 1.451-2.019 1.993-3.242 0.536-1.227 0.848-2.335 0.935-3.325v0l-3.82-3.204c-0.78 0.693-1.488 1.357-2.124 1.991-0.635 0.634-1.255 1.311-1.859 2.031z" fill="#b81d33" data-fill-palette-color="primary"></path><path d="M268.12 191.56v0l2.941 1.378c-0.013 0.542-0.137 1.237-0.374 2.084-0.239 0.838-0.525 1.611-0.856 2.319v0c-1.199 2.56-2.624 4.119-4.274 4.676-1.644 0.56-3.858 0.189-6.64-1.114v0l-10.819-5.069-1.479 3.157-2.986-1.399 1.496-3.193-4.847-2.951 1.357-2.896 5.108 2.394 3.514-7.501 2.986 1.399-3.514 7.5 10.693 5.01c1.727 0.809 3.055 1.04 3.985 0.694 0.921-0.343 1.761-1.325 2.52-2.943v0c0.239-0.51 0.473-1.12 0.704-1.831 0.222-0.708 0.384-1.279 0.485-1.714z" fill="#b81d33" data-fill-palette-color="primary"></path></g></svg></g></svg></g></svg></g><g></g></svg></g><defs></defs></svg><rect width="280" height="280" fill="none" stroke="none" visibility="hidden"></rect></g></svg></g></svg>